<svg width="48" height="48" xmlns="http://www.w3.org/2000/svg"><defs><linearGradient x1="50%" y1="-43.849%" x2="50%" y2="86.188%" id="a"><stop stop-color="#FC5C7D" offset="0%"/><stop stop-color="#F35E85" offset="12.9%"/><stop stop-color="#D9659B" offset="34.3%"/><stop stop-color="#B070BF" offset="61.6%"/><stop stop-color="#777FF0" offset="93.4%"/><stop stop-color="#6A82FB" offset="100%"/></linearGradient><linearGradient x1="50%" y1="-1120.838%" x2="50%" y2="1609.956%" id="b"><stop stop-color="#FC5C7D" offset="0%"/><stop stop-color="#F35E85" offset="12.9%"/><stop stop-color="#D9659B" offset="34.3%"/><stop stop-color="#B070BF" offset="61.6%"/><stop stop-color="#777FF0" offset="93.4%"/><stop stop-color="#6A82FB" offset="100%"/></linearGradient><linearGradient x1="50%" y1="-2720.838%" x2="50%" y2="9.956%" id="c"><stop stop-color="#FC5C7D" offset="0%"/><stop stop-color="#F35E85" offset="12.9%"/><stop stop-color="#D9659B" offset="34.3%"/><stop stop-color="#B070BF" offset="61.6%"/><stop stop-color="#777FF0" offset="93.4%"/><stop stop-color="#6A82FB" offset="100%"/></linearGradient><linearGradient x1="50%" y1="-54.915%" x2="50%" y2="85.126%" id="d"><stop stop-color="#FC5C7D" offset="0%"/><stop stop-color="#F35E85" offset="12.9%"/><stop stop-color="#D9659B" offset="34.3%"/><stop stop-color="#B070BF" offset="61.6%"/><stop stop-color="#777FF0" offset="93.4%"/><stop stop-color="#6A82FB" offset="100%"/></linearGradient><linearGradient x1="50%" y1="-202.315%" x2="50%" y2="101.106%" id="e"><stop stop-color="#FC5C7D" offset="0%"/><stop stop-color="#F35E85" offset="12.9%"/><stop stop-color="#D9659B" offset="34.3%"/><stop stop-color="#B070BF" offset="61.6%"/><stop stop-color="#777FF0" offset="93.4%"/><stop stop-color="#6A82FB" offset="100%"/></linearGradient><linearGradient x1="50%" y1="-2420.838%" x2="50%" y2="309.956%" id="f"><stop stop-color="#FC5C7D" offset="0%"/><stop stop-color="#F35E85" offset="12.9%"/><stop stop-color="#D9659B" offset="34.3%"/><stop stop-color="#B070BF" offset="61.6%"/><stop stop-color="#777FF0" offset="93.4%"/><stop stop-color="#6A82FB" offset="100%"/></linearGradient><linearGradient x1="50%" y1="-.731%" x2="50%" y2="95.086%" id="g"><stop stop-color="#FC5C7D" offset="0%"/><stop stop-color="#F35E85" offset="12.9%"/><stop stop-color="#D9659B" offset="34.3%"/><stop stop-color="#B070BF" offset="61.6%"/><stop stop-color="#777FF0" offset="93.4%"/><stop stop-color="#6A82FB" offset="100%"/></linearGradient><linearGradient x1="50%" y1="-149.604%" x2="50%" y2="110.472%" id="h"><stop stop-color="#FC5C7D" offset="0%"/><stop stop-color="#F35E85" offset="12.9%"/><stop stop-color="#D9659B" offset="34.3%"/><stop stop-color="#B070BF" offset="61.6%"/><stop stop-color="#777FF0" offset="93.4%"/><stop stop-color="#6A82FB" offset="100%"/></linearGradient></defs><g fill-rule="nonzero" fill="none"><path d="M25.49 14.4H11.02a3.211 3.211 0 00-3.216 3.2V24H5.392a3.211 3.211 0 00-3.216 3.2v6.869L0 36.234l1.137 1.132 2.412-2.4a.798.798 0 00.235-.566v-7.2a1.606 1.606 0 011.608-1.6h2.412v2.069L6.43 29.034l1.137 1.132 3.618-3.6a.904.904 0 011.508.402.894.894 0 01-.233.866l-3.618 3.6a.798.798 0 000 1.132 3.716 3.716 0 010 5.268l-4.02 4 1.137 1.132 1.844-1.835V44.8a3.211 3.211 0 003.215 3.2H25.49a3.211 3.211 0 003.216-3.2V17.6a3.211 3.211 0 00-3.216-3.2zm1.608 30.4a1.606 1.606 0 01-1.608 1.6H11.02a1.606 1.606 0 01-1.608-1.6v-5.269l.568-.565a5.309 5.309 0 00.526-6.924l3.092-3.076a2.488 2.488 0 00-.008-3.524 2.518 2.518 0 00-3.54-.008l-.638.635V17.6a1.606 1.606 0 011.607-1.6H25.49a1.606 1.606 0 011.608 1.6v27.2z" fill="url(#a)"/><path fill="url(#b)" d="M15.843 17.6h1.608v1.6h-1.608zM19.059 17.6h1.608v1.6h-1.608z"/><path fill="url(#c)" d="M17.45 43.2h1.609v1.6H17.45z"/><path d="M39.96 16.8h-3.215c-.399 0-.738.291-.795.684l-.72 4.89-5.048.837.264 1.578 5.627-.933a.802.802 0 00.664-.674l.232-1.582h2.188v24c0 .442-.36.8-.804.8h-8.04V48h8.04a2.409 2.409 0 002.412-2.4v-28c0-.442-.36-.8-.804-.8zM37.206 20l.235-1.6h1.717V20h-1.952z" fill="url(#d)"/><path d="M30.314 43.2h4.823a.802.802 0 00.804-.8V29.6c0-.442-.36-.8-.804-.8h-4.823v1.6h4.02v11.2h-4.02v1.6z" fill="url(#e)"/><path fill="url(#f)" d="M31.118 38.4h1.607V40h-1.607z"/><path d="M27.902.8c0-.442-.36-.8-.804-.8h-4.824a.802.802 0 00-.803.8v2.4h-5.628v1.6h1.608v1.6h-1.608V8h1.608v4.8h1.608V8h25.725v13.6h-2.411v1.6h2.411v1.6h-2.411v1.6h2.411v14.4h-2.411v1.6h2.411V44h-2.411v1.6H48V44h-1.608v-1.6H48v-1.6h-1.608V26.4H48v-1.6h-1.608v-1.6H48v-1.6h-1.608V8H48V6.4h-1.608V4.8H48V3.2H27.902V.8zm-4.824.8h3.216v1.6h-3.216V1.6zm21.706 4.8H19.06V4.8h25.725v1.6z" fill="url(#g)"/><path fill="url(#h)" d="M23.882 24.8h-1.608V40h-1.607v-8h-1.608v8H17.45V29.6h-1.608V40h-1.608v-2.4h-1.608V40H11.02v1.6H25.49V40h-1.608z"/></g></svg>