<svg width="48" height="48" xmlns="http://www.w3.org/2000/svg"><defs><linearGradient x1="50%" y1="158.895%" x2="50%" y2=".587%" id="a"><stop stop-color="#12C2E9" offset="0%"/><stop stop-color="#C471ED" offset="50%"/><stop stop-color="#F64F59" offset="100%"/></linearGradient></defs><path d="M6.968 35.613A2.325 2.325 0 009.29 33.29a2.325 2.325 0 00-2.322-2.322 2.325 2.325 0 00-2.323 2.322 2.325 2.325 0 002.323 2.323zm0-3.097c.426 0 .774.348.774.774a.775.775 0 01-.774.775.775.775 0 01-.774-.775c0-.426.347-.774.774-.774zm6.967 5.42a2.325 2.325 0 002.323 2.322 2.325 2.325 0 002.323-2.323 2.325 2.325 0 00-2.323-2.322 2.325 2.325 0 00-2.323 2.322zm2.323-.775c.427 0 .774.348.774.774a.775.775 0 01-.774.775.775.775 0 01-.774-.775c0-.426.347-.774.774-.774zm-9.173 4.235l7.742-12.387 1.313.82-7.742 12.388-1.313-.82zM11.613 48H48v-1.548h-5.42V27.687l2.503 3.002 1.189-.99-4.466-5.36-4.465 5.36 1.19.99 2.501-3.002v18.765h-9.29V33.88l2.502 3.003 1.19-.991-4.466-5.36-4.466 5.36 1.19.99 2.502-3.002v12.572H17.38c3.487-2.006 5.845-5.762 5.845-10.065v-.184c0-2.548-.856-5.063-2.409-7.08l-3.344-4.349h10.301c1.21 0 2.406-.317 3.457-.918l3.15-1.8a2.317 2.317 0 002.006 1.17H48V3.096H36.387a2.32 2.32 0 00-1.904 1l-2.82-2.418A6.974 6.974 0 0027.129 0H13.16a2.325 2.325 0 00-2.322 2.323c0 .874.302 1.673.794 2.322h-5.44a3.1 3.1 0 00-3.096 3.097c0 .567.164 1.09.43 1.548h-.43A3.1 3.1 0 000 12.387a3.1 3.1 0 003.097 3.097h1.798l2.739 6.846-5.225 6.792A11.671 11.671 0 000 36.202v.185C0 42.79 5.21 48 11.613 48zm24-42.58c0-.427.348-.775.774-.775h10.065v17.032H36.387a.775.775 0 01-.774-.774V5.42zM4.645 7.741a1.55 1.55 0 011.549-1.548h13.615l1.189 1.189a3.844 3.844 0 002.736 1.133h1.814V6.968h-1.814c-.611 0-1.21-.248-1.642-.68L20.45 4.645h-5.741a2.325 2.325 0 01-2.322-2.322c0-.427.348-.775.774-.775H27.13c1.292 0 2.545.464 3.527 1.305l3.409 2.922v14.68l-3.601 2.057a5.434 5.434 0 01-2.69.714H16.282l-.651-.846 1.401-2.57c.001.912.356 1.77 1.001 2.415l1.095-1.095a1.883 1.883 0 01-.547-1.321v-2.837l1.988-3.645-1.988-.284V9.61c0-.492.2-.974.547-1.322l-1.095-1.094a3.384 3.384 0 00-.97 2.095H6.193a1.55 1.55 0 01-1.548-1.548zm-3.097 4.645a1.55 1.55 0 011.549-1.548H17.032v1.982l-3.54-.505-1.105 2.211-1.143-2.287-5.933 1.695H3.097a1.55 1.55 0 01-1.549-1.548zm8.886 1.695l1.953 3.907 1.991-3.982 3.763.537-3.891 7.133H9.04l-2.583-6.459 3.977-1.136zm-8.886 22.12c0-2.207.742-4.387 2.088-6.135l5.261-6.841h5.432l5.261 6.84a10.12 10.12 0 012.087 6.137v.184c0 5.55-4.515 10.065-10.064 10.065-5.55 0-10.065-4.515-10.065-10.065v-.184z" fill="url(#a)" fill-rule="nonzero"/></svg>