<svg width="44" height="48" xmlns="http://www.w3.org/2000/svg"><defs><linearGradient x1="50%" y1="135.564%" x2="50%" y2="-22.741%" id="a"><stop stop-color="#12C2E9" offset="0%"/><stop stop-color="#C471ED" offset="50%"/><stop stop-color="#F64F59" offset="100%"/></linearGradient></defs><path d="M24.648 48c1.687-.002 3.054-1.344 3.056-3V33.6h14.463c1.012-.001 1.832-.806 1.833-1.8V16.2c-.001-.994-.821-1.799-1.833-1.8H27.704V3c-.002-1.656-1.37-2.998-3.056-3H3.056C1.369.002.002 1.344 0 3v42c.002 1.656 1.369 2.998 3.056 3h21.592zM1.63 6.4h24.444V40H1.63V6.4zm26.074 15.337a2.47 2.47 0 012.778.836 2.365 2.365 0 010 2.854 2.47 2.47 0 01-2.778.836v-4.526zm0 6.182a4.108 4.108 0 004.2-1.69 3.94 3.94 0 000-4.457 4.108 4.108 0 00-4.2-1.69V19.2h9.066a3.242 3.242 0 002.341 2.299V26.5A3.242 3.242 0 0036.77 28.8h-9.065v-.881zM42.167 16c.112 0 .203.09.203.2v15.6c0 .11-.09.2-.203.2H27.704v-1.6h9.777c.45 0 .815-.358.815-.8.001-.883.73-1.599 1.63-1.6.45 0 .815-.358.815-.8v-6.4c0-.442-.365-.8-.815-.8-.9-.001-1.629-.717-1.63-1.6 0-.442-.365-.8-.815-.8h-9.777V16h14.463zM3.056 1.6h21.592c.787 0 1.425.627 1.426 1.4v1.8H1.63V3c0-.773.638-1.399 1.425-1.4zM1.63 45v-3.4h24.444V45c0 .773-.639 1.4-1.426 1.4H3.056A1.415 1.415 0 011.63 45zM24.08 17.734l-9.778-6.4a.827.827 0 00-.904 0l-9.777 6.4a.796.796 0 00-.363.666v2.4c0 .442.365.8.815.8h.814v4.8a.808.808 0 00-.814.8v2.4a.808.808 0 00-.815.8v3.2c0 .442.365.8.815.8h19.555c.45 0 .815-.358.815-.8v-3.2c0-.442-.365-.8-.815-.8v-2.4c0-.442-.365-.8-.815-.8v-4.8h.815c.45 0 .815-.358.815-.8v-2.4a.796.796 0 00-.363-.666zM6.519 21.6h1.63v4.8h-1.63v-4.8zm9.777 4.8v-4.8h1.63v4.8h-1.63zm-6.518 0v-4.8h1.63v4.8h-1.63zm3.259-4.8h1.63v4.8h-1.63v-4.8zM9.21 20l4.642-3.038L18.493 20H9.21zm13.605 12.8H4.889v-1.6h17.926v1.6zM5.704 29.6V28H22v1.6H5.704zm15.481-3.2h-1.63v-4.8h1.63v4.8zm1.63-6.4H21.43l-7.128-4.666a.827.827 0 00-.904 0L6.271 20H4.89v-1.172l8.963-5.867 8.963 5.867V20zM11.407 44c0-.442.365-.8.815-.8h4.074c.45 0 .815.358.815.8 0 .442-.365.8-.815.8h-4.074a.808.808 0 01-.815-.8zm19.556-8.8c.45 0 .815.358.815.8 0 .442-.365.8-.815.8h-.815a.808.808 0 01-.815-.8c0-.442.365-.8.815-.8h.815zm7.333 0c.45 0 .815.358.815.8 0 .442-.365.8-.815.8h-4.074a.808.808 0 01-.815-.8c0-.442.365-.8.815-.8h4.074zM14.87 37c0 .552-.456 1-1.018 1a1.01 1.01 0 01-1.019-1c0-.552.456-1 1.019-1a1.01 1.01 0 011.018 1zm-3.463 0c0 .552-.456 1-1.018 1a1.01 1.01 0 01-1.019-1c0-.552.456-1 1.019-1a1.01 1.01 0 011.018 1zm6.926 0c0 .552-.456 1-1.018 1a1.01 1.01 0 01-1.019-1c0-.552.456-1 1.019-1a1.01 1.01 0 011.018 1z" fill="url(#a)" fill-rule="nonzero"/></svg>