<svg width="48" height="48" xmlns="http://www.w3.org/2000/svg"><defs><linearGradient x1="50%" y1="99.995%" x2="50%" y2="0%" id="a"><stop stop-color="#27C1E6" offset="0%"/><stop stop-color="#C275E9" offset="50%"/><stop stop-color="#F2515D" offset="100%"/></linearGradient></defs><path d="M47.34 33.416L44.5 19.215A4.01 4.01 0 0040.576 16H24.8V4.8a4.8 4.8 0 00-9.6 0 3.2 3.2 0 01-6.4 0v-4a.8.8 0 00-1.6 0v4a4.8 4.8 0 009.6 0 3.2 3.2 0 016.4 0V16H7.423a4.01 4.01 0 00-3.922 3.215l-2.84 14.2A34.107 34.107 0 000 40.09v.016c0 1.874.66 3.688 1.865 5.123a7.739 7.739 0 004.74 2.677 7.813 7.813 0 008.085-4.016l2.619-4.864a2.71 2.71 0 012.39-1.427h8.602a2.71 2.71 0 012.39 1.427l2.619 4.864a7.834 7.834 0 007.861 4.047C45.064 47.45 48 44.08 48 40.101v-.011c0-2.241-.222-4.477-.66-6.674zM18.4 17.6h11.2v3.2a2.403 2.403 0 01-2.4 2.4h-6.4a2.403 2.403 0 01-2.4-2.4v-3.2zm-7.402 27.92a6.252 6.252 0 01-4.148.805c-2.993-.461-5.25-3.135-5.25-6.219v-.016c0-2.136.212-4.266.63-6.36l.128-.641 10.591 10.59a6.214 6.214 0 01-1.951 1.84zM32.1 38.268a4.309 4.309 0 00-3.799-2.269h-8.602a4.309 4.309 0 00-3.799 2.269l-2.135 3.965-11.03-11.03L5.07 19.53a2.406 2.406 0 012.353-1.93H16.8v3.2a4.004 4.004 0 004 4h6.4a4.004 4.004 0 004-4v-3.2h9.377a2.406 2.406 0 012.353 1.93l2.335 11.674-11.03 11.03-2.135-3.965zM46.4 40.1c0 3.174-2.334 5.86-5.428 6.249a6.21 6.21 0 01-5.921-2.671l10.591-10.59.128.64c.418 2.094.63 4.225.63 6.36v.012zM15.2 25.599h-2.4v-2.4a.8.8 0 00-.8-.8H8.8a.8.8 0 00-.8.8v2.4H5.6a.8.8 0 00-.8.8v3.2a.8.8 0 00.8.8H8v2.4a.8.8 0 00.8.8H12a.8.8 0 00.8-.8v-2.4h2.4a.8.8 0 00.8-.8v-3.2a.8.8 0 00-.8-.8zm-.8 3.2H12a.8.8 0 00-.8.8V32H9.6v-2.4a.8.8 0 00-.8-.8H6.4v-1.6h2.4a.8.8 0 00.8-.8V24h1.6v2.4a.8.8 0 00.8.8h2.4v1.6zm23.2 4.8A5.6 5.6 0 1032 28a5.606 5.606 0 005.6 5.6zm0-9.6a4 4 0 110 8 4 4 0 010-8zM20.8 34.4a2.4 2.4 0 110-4.8 2.4 2.4 0 010 4.8zm0-3.2a.8.8 0 100 1.6.8.8 0 000-1.6zm6.4 3.2a2.4 2.4 0 110-4.8 2.4 2.4 0 010 4.8zm0-3.2a.8.8 0 100 1.6.8.8 0 000-1.6z" fill="url(#a)" fill-rule="nonzero"/></svg>