<svg width="42" height="48" xmlns="http://www.w3.org/2000/svg"><defs><linearGradient x1="50%" y1="125.436%" x2="50%" y2="-32.872%" id="a"><stop stop-color="#12C2E9" offset="0%"/><stop stop-color="#C471ED" offset="50%"/><stop stop-color="#F64F59" offset="100%"/></linearGradient><linearGradient x1="50%" y1="135.564%" x2="50%" y2="-22.741%" id="b"><stop stop-color="#12C2E9" offset="0%"/><stop stop-color="#C471ED" offset="50%"/><stop stop-color="#F64F59" offset="100%"/></linearGradient><linearGradient x1="50%" y1="104.669%" x2="50%" y2="-53.638%" id="c"><stop stop-color="#12C2E9" offset="0%"/><stop stop-color="#C471ED" offset="50%"/><stop stop-color="#F64F59" offset="100%"/></linearGradient><linearGradient x1="50%" y1="158.895%" x2="50%" y2=".587%" id="d"><stop stop-color="#12C2E9" offset="0%"/><stop stop-color="#C471ED" offset="50%"/><stop stop-color="#F64F59" offset="100%"/></linearGradient></defs><g fill-rule="nonzero" fill="none"><path d="M15.345 10.4a.804.804 0 00-.807.8v4h-2.421a.804.804 0 00-.808.8v20.8c0 .442.362.8.808.8h2.421v3.2c0 .442.362.8.807.8a.804.804 0 00.807-.8v-3.2h2.422a.804.804 0 00.807-.8V16c0-.442-.361-.8-.807-.8h-2.422v-4c0-.442-.361-.8-.807-.8zM17.767 36h-4.843V16.8h4.843V36z" fill="url(#a)"/><path d="M26.655 7.2a.804.804 0 00-.807.8v4h-2.422a.804.804 0 00-.807.8v20.8c0 .442.361.8.807.8h2.422v3.2c0 .442.361.8.807.8a.804.804 0 00.807-.8v-3.2h2.421a.804.804 0 00.808-.8V12.8c0-.442-.362-.8-.808-.8h-2.421V8c0-.442-.362-.8-.807-.8zm2.421 25.6h-4.843V13.6h4.843v19.2z" fill="url(#b)"/><path d="M37.964 16.8a.804.804 0 00-.807.8v4h-2.421a.804.804 0 00-.808.8v20.8c0 .442.362.8.808.8h2.421v3.2c0 .442.361.8.807.8a.804.804 0 00.807-.8V44h2.422a.804.804 0 00.807-.8V22.4c0-.442-.361-.8-.807-.8H38.77v-4c0-.442-.361-.8-.807-.8zm2.422 25.6h-4.843V23.2h4.843v19.2z" fill="url(#c)"/><path d="M4.036 0a.804.804 0 00-.807.8v4H.807A.804.804 0 000 5.6v20.8c0 .442.361.8.807.8H3.23v3.2c0 .442.361.8.807.8a.804.804 0 00.807-.8v-3.2h2.421a.804.804 0 00.808-.8V5.6c0-.442-.362-.8-.808-.8H4.843v-4c0-.442-.361-.8-.807-.8zm2.421 25.6H1.614V6.4h4.843v19.2z" fill="url(#d)"/></g></svg>