<svg width="48" height="48" xmlns="http://www.w3.org/2000/svg"><defs><linearGradient x1="49.995%" y1="99.991%" x2="49.995%" y2="0%" id="a"><stop stop-color="#12BEE5" offset="0%"/><stop stop-color="#C071E9" offset="50%"/><stop stop-color="#F24F5A" offset="100%"/></linearGradient></defs><path d="M40.074 36.68a15.992 15.992 0 001.91-15.601c.185-.158.372-.322.559-.495 2.485-2.298 5.448-6.486 5.448-13.387a.8.8 0 00-.38-.68L37.216.116a.82.82 0 00-.843 0l-10.395 6.4a.8.8 0 00-.38.68H.8a.8.8 0 00-.8.8v39.199a.8.8 0 00.8.8h26.397a.8.8 0 00.8-.8v-4.02a15.909 15.909 0 008.683-3.102l7.219 7.218a2.4 2.4 0 103.393-3.394l-7.218-7.218zm-3.28-34.945l9.593 5.906c-.094 4.845-1.734 8.785-4.878 11.72a14.928 14.928 0 01-4.716 2.993 14.797 14.797 0 01-4.661-2.945c-3.178-2.938-4.836-6.896-4.93-11.768l9.592-5.906zm-9.213 14.269a16.361 16.361 0 003.465 4.58c2.698 2.494 5.385 3.342 5.498 3.377a.8.8 0 00.236.035h.029a.8.8 0 00.236-.035c.035-.011.322-.102.783-.297a11.202 11.202 0 11-10.247-7.66zm-1.184 30.392H1.6V8.797h24.054c.056.821.161 1.638.314 2.447a16.008 16.008 0 00-12.125 7.153H4a.8.8 0 000 1.6h8.913c-.263.52-.497 1.054-.702 1.6H4a.8.8 0 000 1.6h7.705a15.898 15.898 0 00-.326 1.6h-7.38a.8.8 0 000 1.6h7.22a15.922 15.922 0 000 1.6h-7.22a.8.8 0 000 1.6h7.38c.135.892.346 1.772.63 2.63-.278.081-.55.185-.811.31a5.6 5.6 0 100 10.118 5.603 5.603 0 007.171-2.123 15.897 15.897 0 008.028 2.644v3.22zm-12.074-9.713a16.141 16.141 0 002.752 2.894 4 4 0 01-4.28 1.937 5.58 5.58 0 001.528-4.831zm-5.524 4.913a4 4 0 110-8 4 4 0 010 8zm18.398 0c-7.939 0-14.398-6.46-14.398-14.4 0-7.652 6-13.928 13.541-14.373.156.553.333 1.078.526 1.578a12.79 12.79 0 1012.409 8.552c.428-.238.896-.524 1.388-.864.62 1.631.937 3.362.933 5.107 0 7.94-6.46 14.4-14.399 14.4zm18.964 4.565a.8.8 0 01-1.131 0l-7.105-7.105c.395-.358.772-.735 1.131-1.131l7.105 7.105a.8.8 0 010 1.131zM9.6 36.796h-.8a1.6 1.6 0 010 3.2H8a.8.8 0 010-1.6h.8a1.6 1.6 0 010-3.2h.8a.8.8 0 010 1.6zm-5.6-20h8.8a.8.8 0 00.8-.8v-3.199a.8.8 0 00-.8-.8h-8.8a.8.8 0 00-.8.8v3.2a.8.8 0 00.8.8zm.8-3.199H12v1.6h-7.2v-1.6zm28.222 4.452a13.818 13.818 0 003.406 2.399.8.8 0 00.709 0 13.87 13.87 0 003.422-2.4c2.42-2.322 3.818-5.364 4.157-9.044a.8.8 0 00-.377-.754 6194.675 6194.675 0 00-7.125-4.378.8.8 0 00-.837 0l-7.12 4.384a.8.8 0 00-.378.754c.34 3.678 1.733 6.72 4.143 9.039zm3.775-12.556c2.215 1.36 4.632 2.844 6.273 3.855-.376 3.064-1.592 5.6-3.619 7.545a12.275 12.275 0 01-2.667 1.937 12.226 12.226 0 01-2.653-1.934c-2.019-1.943-3.23-4.478-3.606-7.542l6.272-3.861zm-1.365 9.47l-1.6-1.6a.8.8 0 011.131-1.132l1.035 1.035 3.434-3.434a.8.8 0 111.13 1.13l-3.999 4a.8.8 0 01-1.131 0zM19.198 27.196a8.009 8.009 0 008 8 .8.8 0 010 1.6c-5.3-.006-9.594-4.3-9.6-9.6a.8.8 0 111.6 0z" fill="url(#a)" fill-rule="nonzero"/></svg>